<svg width="355" height="461" viewBox="0 0 355 461" fill="none" xmlns="http://www.w3.org/2000/svg">
<path d="M321.504 144.732C333.501 139.131 347.386 144.139 353.018 156.2C354.35 159.04 355.01 163.21 355 168.713C354.854 225.536 354.854 280.794 355 334.487C355.015 345.143 350.569 353.272 341.489 357.5C268.922 391.295 196.829 424.918 125.209 458.369C117.689 461.88 110.263 461.864 102.899 458.4C70.1779 443.058 40.1766 429.037 12.8952 416.337C8.11082 414.111 4.54325 410.366 2.19266 405.103C0.642933 401.618 -0.0850689 396.922 0.00853874 391.014C0.320564 371.501 0.320564 352.227 0.00853874 333.192C-0.0850689 327.44 0.590967 322.848 2.03669 319.415C5.79659 310.475 15.5317 304.624 25.2981 305.42C28.1584 305.659 31.8975 306.85 36.5155 308.993C85.2746 331.616 131.558 353.127 175.367 373.524C177.541 374.533 179.657 375.464 181.717 376.317C197.396 382.807 213.652 371.199 213.715 354.614C213.777 337.441 213.777 320.887 213.715 304.952C213.668 293.843 208.208 286.806 198.628 282.344C135.225 252.814 73.8545 224.174 14.5177 196.423C4.29887 191.648 0.0709552 183.894 0.117759 173.081C0.284173 122.436 0.273741 72.5092 0.0865261 23.2997C0.00851969 5.24783 18.6364 -4.92479 34.2221 2.39267C67.2448 17.8805 98.1666 32.3178 126.987 45.7046C137.175 50.4477 141.372 58.2644 141.387 68.9988C141.408 107.152 141.387 147.707 141.325 190.665C141.309 201.15 145.912 209.56 155.943 213.881C161.763 216.378 168.611 216.035 174.384 213.335C223.164 190.577 272.204 167.709 321.504 144.732Z" fill="black"/>
</svg>
