<svg width="497" height="603" viewBox="0 0 497 603" fill="none" xmlns="http://www.w3.org/2000/svg">
<g filter="url(#filter0_d_1746_1397)">
<path d="M392.504 215.732C404.501 210.131 418.386 215.139 424.018 227.2C425.35 230.04 426.01 234.21 426 239.713C425.854 296.536 425.854 351.794 426 405.487C426.015 416.143 421.569 424.272 412.489 428.5C339.922 462.295 267.829 495.918 196.209 529.369C188.689 532.88 181.263 532.864 173.899 529.4C141.178 514.058 111.177 500.037 83.8952 487.337C79.1108 485.111 75.5433 481.366 73.1927 476.103C71.6429 472.618 70.9149 467.922 71.0085 462.014C71.3206 442.501 71.3206 423.227 71.0085 404.192C70.9149 398.44 71.591 393.848 73.0367 390.415C76.7966 381.475 86.5317 375.624 96.2981 376.42C99.1584 376.659 102.897 377.85 107.515 379.993C156.275 402.616 202.558 424.127 246.367 444.524C248.541 445.533 250.657 446.464 252.717 447.317C268.396 453.807 284.652 442.199 284.715 425.614C284.777 408.441 284.777 391.887 284.715 375.952C284.668 364.843 279.208 357.806 269.628 353.344C206.225 323.814 144.855 295.174 85.5177 267.423C75.2989 262.648 71.071 254.894 71.1178 244.081C71.2842 193.436 71.2737 143.509 71.0865 94.2997C71.0085 76.2478 89.6364 66.0752 105.222 73.3927C138.245 88.8805 169.167 103.318 197.987 116.705C208.175 121.448 212.372 129.264 212.387 139.999C212.408 178.152 212.387 218.707 212.325 261.665C212.309 272.15 216.912 280.56 226.943 284.881C232.763 287.378 239.611 287.035 245.384 284.335C294.164 261.577 343.204 238.709 392.504 215.732Z" fill="#E3E3E3"/>
</g>
<path fill-rule="evenodd" clip-rule="evenodd" d="M496.999 405.294C496.854 351.734 496.854 296.553 497 239.847C497.017 230.646 496.254 214.075 488.35 197.158L488.343 197.144C466.098 149.53 409.971 129.248 362.511 151.378L362.468 151.398C336.035 163.718 309.676 176.006 283.392 188.263C283.397 171.757 283.396 155.656 283.387 139.96L283.387 139.896C283.366 125.392 280.485 107.31 269.944 89.6765C259.125 71.5777 243.642 59.6426 227.954 52.3387L227.897 52.3118C199.174 38.9705 168.341 24.5748 135.396 9.12361L135.37 9.11143C78.3888 -17.6193 -0.218139 18.1426 0.0869226 94.5698L0.0870752 94.6065C0.273469 143.623 0.283769 193.388 0.118028 243.848C0.0644235 258.504 2.92023 276.741 13.5606 294.503C20.7717 306.541 30.0186 315.793 39.9269 322.767C25.9636 332.625 14.5724 346.304 7.60356 362.856L7.59136 362.885L7.58909 362.89C0.822045 378.976 -0.1576 394.568 0.0178232 405.347L0.0179605 405.356C0.317117 423.605 0.317582 442.113 0.0175027 460.879L0.0173349 460.889C-0.15895 472.015 0.906243 488.287 8.31923 504.955L8.34166 505.006L8.36418 505.056C16.9962 524.384 32.1617 541.571 53.9305 551.704L53.9453 551.711C81.1534 564.377 111.09 578.368 143.757 593.685C170.363 606.172 199.835 606.032 226.242 593.704C297.838 560.264 369.919 526.647 442.461 492.864C480.897 474.965 497.048 438.606 497 405.383L496.999 405.294ZM228.21 436.072C189.822 418.208 149.59 399.515 107.515 379.993C102.897 377.85 99.1583 376.659 96.298 376.42C86.5316 375.624 76.7965 381.475 73.0366 390.415C71.5909 393.848 70.9148 398.44 71.0084 404.192C71.3204 423.227 71.3204 442.501 71.0084 462.014C70.9148 467.922 71.6428 472.618 73.1925 476.103C75.5431 481.366 79.1107 485.111 83.8951 487.337C111.177 500.037 141.178 514.058 173.899 529.4C178.023 531.34 182.167 532.199 186.336 531.962C189.611 531.775 192.901 530.913 196.209 529.369C207.043 524.309 217.889 519.244 228.746 514.176C269.054 495.357 309.511 476.485 350.118 457.559C370.869 447.887 391.66 438.201 412.489 428.5C421.569 424.272 426.015 416.143 426 405.487C425.855 352.016 425.856 297.077 426 240.5C426 240.266 425.999 239.947 426 239.713C426.01 234.21 425.35 230.04 424.018 227.2C418.386 215.139 404.501 210.131 392.504 215.732C374.266 224.232 356.064 232.717 337.898 241.187C314.369 252.157 290.901 263.102 267.492 274.021C260.117 277.462 252.747 280.9 245.384 284.335C239.611 287.035 232.762 287.378 226.943 284.881C216.912 280.56 212.309 272.15 212.325 261.665C212.331 257.185 212.345 246.594 212.35 242.166C212.393 206.385 212.405 172.329 212.387 139.999C212.372 129.264 208.175 121.448 197.987 116.705C169.166 103.318 138.245 88.8805 105.222 73.3927C89.6363 66.0752 71.0084 76.2478 71.0864 94.2997C71.2726 143.246 71.2813 193.716 71.1176 244.081C71.0708 254.894 75.2988 262.648 85.5176 267.423C105.906 276.958 126.535 286.599 147.404 296.344C167.877 305.905 188.582 315.567 209.517 325.33L209.579 325.359C228.527 334.195 247.665 343.115 266.992 352.116L269.628 353.344C279.207 357.806 284.668 364.843 284.715 375.952C284.758 386.907 284.771 398.154 284.755 409.694C284.748 414.941 284.734 420.247 284.715 425.614C284.652 442.199 268.396 453.807 252.716 447.317C250.657 446.464 248.54 445.533 246.367 444.524C240.361 441.728 234.309 438.91 228.21 436.072Z" fill="#1B1B1B"/>
<defs>
<filter id="filter0_d_1746_1397" x="67" y="71" width="363" height="469" filterUnits="userSpaceOnUse" color-interpolation-filters="sRGB">
<feFlood flood-opacity="0" result="BackgroundImageFix"/>
<feColorMatrix in="SourceAlpha" type="matrix" values="0 0 0 0 0 0 0 0 0 0 0 0 0 0 0 0 0 0 127 0" result="hardAlpha"/>
<feOffset dy="4"/>
<feGaussianBlur stdDeviation="2"/>
<feComposite in2="hardAlpha" operator="out"/>
<feColorMatrix type="matrix" values="0 0 0 0 0 0 0 0 0 0 0 0 0 0 0 0 0 0 0.25 0"/>
<feBlend mode="normal" in2="BackgroundImageFix" result="effect1_dropShadow_1746_1397"/>
<feBlend mode="normal" in="SourceGraphic" in2="effect1_dropShadow_1746_1397" result="shape"/>
</filter>
</defs>
</svg>
